<svg width="20" height="20" viewBox="0 0 20 20" fill="none" xmlns="http://www.w3.org/2000/svg">
<path d="M8.5095 7.5H13.25C13.6642 7.5 14 7.16421 14 6.75C14 6.33579 13.6642 6 13.25 6H6.75C6.33579 6 6 6.33579 6 6.75V13.25C6 13.6642 6.33579 14 6.75 14C7.16421 14 7.5 13.6642 7.5 13.25V8.6114L12.7222 13.783C13.0165 14.0744 13.4914 14.0721 13.7828 13.7778C14.0743 13.4835 14.072 13.0086 13.7777 12.7172L8.5095 7.5ZM20 10C20 15.5228 15.5228 20 10 20C4.47715 20 0 15.5228 0 10C0 4.47715 4.47715 0 10 0C15.5228 0 20 4.47715 20 10ZM10 18.5C14.6944 18.5 18.5 14.6944 18.5 10C18.5 5.30558 14.6944 1.5 10 1.5C5.30558 1.5 1.5 5.30558 1.5 10C1.5 14.6944 5.30558 18.5 10 18.5Z" fill="#4E4E4E"/>
</svg>
