<svg width="26" height="16" viewBox="0 0 26 16" fill="none" xmlns="http://www.w3.org/2000/svg">
<mask id="path-1-inside-1_3049_3126" fill="white">
<path d="M25.0557 7.81518L25.0664 7.96969C25.0664 8.54599 24.6245 9.02227 24.0512 9.09755L23.8918 9.10802L4.00746 9.10666L9.05246 13.993C9.46953 14.397 9.50775 15.0295 9.16679 15.4752L9.05309 15.6029C8.63633 16.0072 7.98369 16.0443 7.5237 15.7137L7.39183 15.6037L0.34399 8.77927C-0.0730858 8.37539 -0.111301 7.74294 0.229658 7.29716L0.343365 7.16952L7.39121 0.33374C7.84979 -0.110983 8.59341 -0.111287 9.05246 0.333072C9.46953 0.737029 9.50775 1.36943 9.16679 1.8152L9.05309 1.94292L4.01373 6.82999L23.8918 6.83136C24.4864 6.83136 24.9779 7.25952 25.0557 7.81518L25.0664 7.96969L25.0557 7.81518Z"/>
</mask>
<path d="M25.0557 7.81518L25.0664 7.96969C25.0664 8.54599 24.6245 9.02227 24.0512 9.09755L23.8918 9.10802L4.00746 9.10666L9.05246 13.993C9.46953 14.397 9.50775 15.0295 9.16679 15.4752L9.05309 15.6029C8.63633 16.0072 7.98369 16.0443 7.5237 15.7137L7.39183 15.6037L0.34399 8.77927C-0.0730858 8.37539 -0.111301 7.74294 0.229658 7.29716L0.343365 7.16952L7.39121 0.33374C7.84979 -0.110983 8.59341 -0.111287 9.05246 0.333072C9.46953 0.737029 9.50775 1.36943 9.16679 1.8152L9.05309 1.94292L4.01373 6.82999L23.8918 6.83136C24.4864 6.83136 24.9779 7.25952 25.0557 7.81518L25.0664 7.96969L25.0557 7.81518Z" fill="#232164"/>
<path d="M25.0557 7.81518L52.9884 5.87574L52.9208 4.90122L52.7854 3.93379L25.0557 7.81518ZM25.0664 7.96969L53.0664 7.96969V6.9988L52.9992 6.03025L25.0664 7.96969ZM24.0512 9.09755L25.8869 37.0373L26.7945 36.9777L27.6963 36.8593L24.0512 9.09755ZM23.8918 9.10802L23.8898 37.108L24.8096 37.1081L25.7275 37.0478L23.8918 9.10802ZM4.00746 9.10666L4.00938 -18.8933L-65.1527 -18.8981L-15.4727 29.2194L4.00746 9.10666ZM9.05246 13.993L28.5345 -6.11797L28.5326 -6.11975L9.05246 13.993ZM9.16679 15.4752L30.0747 34.0994L30.771 33.3177L31.407 32.4862L9.16679 15.4752ZM9.05309 15.6029L28.5502 35.6992L29.2824 34.9888L29.961 34.2271L9.05309 15.6029ZM7.5237 15.7137L-10.4154 37.2122L-9.63842 37.8606L-8.81663 38.4512L7.5237 15.7137ZM7.39183 15.6037L-12.0857 35.719L-11.3421 36.439L-10.5473 37.1022L7.39183 15.6037ZM0.34399 8.77927L-19.1343 28.8939L-19.1335 28.8946L0.34399 8.77927ZM0.229658 7.29716L-20.678 -11.3273L-21.3744 -10.5455L-22.0106 -9.7138L0.229658 7.29716ZM0.343365 7.16952L-19.1509 -12.9295L-19.8845 -12.218L-20.5643 -11.4549L0.343365 7.16952ZM7.39121 0.33374L-12.1018 -19.7666L-12.1031 -19.7653L7.39121 0.33374ZM9.05246 0.333072L28.5326 -19.7797L28.5269 -19.7852L9.05246 0.333072ZM9.16679 1.8152L30.0801 20.4333L30.7735 19.6544L31.407 18.8262L9.16679 1.8152ZM9.05309 1.94292L28.546 22.0433L29.2834 21.3282L29.9664 20.561L9.05309 1.94292ZM4.01373 6.82999L-15.4792 -13.2704L-65.0736 34.8252L4.0118 34.83L4.01373 6.82999ZM23.8918 6.83136L23.8898 34.8314H23.8918V6.83136ZM-2.87707 9.75463L-2.86634 9.90914L52.9992 6.03025L52.9884 5.87574L-2.87707 9.75463ZM-2.93359 7.96969C-2.93359 -6.35954 7.90415 -17.0226 20.406 -18.6642L27.6963 36.8593C41.3449 35.0672 53.0664 23.4515 53.0664 7.96969L-2.93359 7.96969ZM22.2155 -18.8422L22.0561 -18.8317L25.7275 37.0478L25.8869 37.0373L22.2155 -18.8422ZM23.8937 -18.892L4.00938 -18.8933L4.00554 37.1067L23.8898 37.108L23.8937 -18.892ZM-15.4727 29.2194L-10.4277 34.1057L28.5326 -6.11975L23.4876 -11.0061L-15.4727 29.2194ZM-10.4296 34.104C-20.2919 24.5501 -21.2966 9.21527 -13.0734 -1.53572L31.407 32.4862C40.3121 20.8437 39.231 4.24399 28.5345 -6.11797L-10.4296 34.104ZM-11.7411 -3.14891L-11.8548 -3.02126L29.961 34.2271L30.0747 34.0994L-11.7411 -3.14891ZM-10.444 -4.49343C-0.923817 -13.7298 13.5491 -14.4367 23.864 -7.0238L-8.81663 38.4512C2.41833 46.5252 18.1965 45.7442 28.5502 35.6992L-10.444 -4.49343ZM25.4628 -5.78485L25.331 -5.89489L-10.5473 37.1022L-10.4154 37.2122L25.4628 -5.78485ZM26.8694 -4.51166L19.8215 -11.336L-19.1335 28.8946L-12.0857 35.719L26.8694 -4.51166ZM19.8222 -11.3353C29.691 -1.77878 30.6916 13.5591 22.4699 24.3081L-22.0106 -9.7138C-30.9142 1.92681 -29.8372 18.5296 -19.1343 28.8939L19.8222 -11.3353ZM21.1373 25.9216L21.251 25.794L-20.5643 -11.4549L-20.678 -11.3273L21.1373 25.9216ZM19.8377 27.2686L26.8855 20.4328L-12.1031 -19.7653L-19.1509 -12.9295L19.8377 27.2686ZM26.8842 20.4341C16.4868 30.5173 -0.0196037 30.5209 -10.422 20.4513L28.5269 -19.7852C17.2064 -30.7434 -0.787226 -30.7393 -12.1018 -19.7666L26.8842 20.4341ZM-10.4277 20.4459C-20.2931 10.8908 -21.2959 -4.4456 -13.0734 -15.1958L31.407 18.8262C40.3114 7.18445 39.2322 -9.4167 28.5326 -19.7797L-10.4277 20.4459ZM-11.7465 -16.8029L-11.8602 -16.6752L29.9664 20.561L30.0801 20.4333L-11.7465 -16.8029ZM-10.4399 -18.1575L-15.4792 -13.2704L23.5067 26.9304L28.546 22.0433L-10.4399 -18.1575ZM4.0118 34.83L23.8898 34.8314L23.8937 -21.1686L4.01565 -21.17L4.0118 34.83ZM23.8918 34.8314C11.002 34.8314 -0.750248 25.4403 -2.674 11.6966L52.7854 3.93379C50.706 -10.9213 37.9709 -21.1686 23.8918 -21.1686V34.8314ZM-2.87707 9.75463L-2.86634 9.90914L52.9992 6.03025L52.9884 5.87574L-2.87707 9.75463ZM52.9992 6.03025L52.9884 5.87574L-2.87707 9.75463L-2.86634 9.90914L52.9992 6.03025Z" fill="#232164" mask="url(#path-1-inside-1_3049_3126)"/>
</svg>
