<svg width="30" height="32" viewBox="0 0 30 32" fill="none" xmlns="http://www.w3.org/2000/svg">
<path d="M16.4863 7.59618C16.4863 8.50482 15.7497 9.24144 14.841 9.24144C13.9324 9.24144 13.1958 8.50482 13.1958 7.59618C13.1958 6.68752 13.9324 5.95092 14.841 5.95092C15.7497 5.95092 16.4863 6.68752 16.4863 7.59618ZM16.5383 1.1374C15.5271 0.399514 14.155 0.399514 13.1438 1.1374L0.932941 10.048C-0.674609 11.2211 0.155145 13.7658 2.14522 13.7658H2.50158V23.3082C1.03661 24.0571 0.0336914 25.5811 0.0336914 27.3392V29.8071C0.0336914 30.4886 0.586153 31.0411 1.26764 31.0411H28.4144C29.0959 31.0411 29.6484 30.4886 29.6484 29.8071V27.3392C29.6484 25.5811 28.6454 24.0571 27.1805 23.3082V13.7658H27.5368C29.527 13.7658 30.3567 11.2211 28.7491 10.048L16.5383 1.1374ZM14.5985 3.13092C14.743 3.02551 14.9391 3.02551 15.0835 3.13092L26.2754 11.298H3.40666L14.5985 3.13092ZM24.7126 13.7658V22.8148H21.4221V13.7658H24.7126ZM18.9542 13.7658V22.8148H16.075V13.7658H18.9542ZM13.6071 13.7658V22.8148H10.7279V13.7658H13.6071ZM4.55816 25.2827H25.1239C26.2598 25.2827 27.1805 26.2035 27.1805 27.3392V28.5732H2.50158V27.3392C2.50158 26.2035 3.42233 25.2827 4.55816 25.2827ZM4.96947 22.8148V13.7658H8.25999V22.8148H4.96947Z" fill="#7D8287"/>
</svg>
