<svg width="19" height="19" viewBox="0 0 19 19" fill="none" xmlns="http://www.w3.org/2000/svg">
<path d="M0 9.5C0 12.1244 0.960556 14.4875 2.49111 16.1975L0 19H6.33333V11.875L3.96889 14.535C2.82889 13.2406 2.11111 11.4712 2.11111 9.5C2.11111 6.40062 3.87389 3.76437 6.33333 2.79062V0.30875C2.69167 1.36563 0 5.07062 0 9.5ZM8.44444 15.4375H10.5556V13.0625H8.44444V15.4375ZM19 0H12.6667V7.125L15.0311 4.465C16.1711 5.75938 16.8889 7.52875 16.8889 9.5C16.8889 12.5994 15.1261 15.2356 12.6667 16.2094V18.6912C16.3083 17.6344 19 13.9294 19 9.5C19 6.87562 18.0394 4.5125 16.5089 2.8025L19 0ZM8.44444 10.6875H10.5556V3.5625H8.44444V10.6875Z" fill="#FC0D1B"/>
</svg>
