<svg width="20" height="20" viewBox="0 0 20 20" fill="none" xmlns="http://www.w3.org/2000/svg">
<path d="M11.4905 12.5H6.75C6.33579 12.5 6 12.8358 6 13.25C6 13.6642 6.33579 14 6.75 14H13.25C13.6642 14 14 13.6642 14 13.25V6.75C14 6.33579 13.6642 6 13.25 6C12.8358 6 12.5 6.33579 12.5 6.75V11.3886L7.2778 6.21703C6.98349 5.92556 6.50862 5.92787 6.21715 6.22219C5.92569 6.51651 5.928 6.99137 6.22232 7.28284L11.4905 12.5ZM0 10C0 4.47715 4.47715 0 10 0C15.5228 0 20 4.47715 20 10C20 15.5228 15.5228 20 10 20C4.47715 20 0 15.5228 0 10ZM10 1.5C5.30558 1.5 1.5 5.30558 1.5 10C1.5 14.6944 5.30558 18.5 10 18.5C14.6944 18.5 18.5 14.6944 18.5 10C18.5 5.30558 14.6944 1.5 10 1.5Z" fill="#3AB75D"/>
</svg>
