<svg width="20" height="16" viewBox="0 0 20 16" fill="none" xmlns="http://www.w3.org/2000/svg">
<path d="M2.45009 0.799805H17.6876C19.1251 0.799805 19.8496 1.5078 19.8496 2.9478V13.0518C19.8496 14.4798 19.1251 15.1998 17.6876 15.1998H2.45009C1.01259 15.1998 0.288086 14.4798 0.288086 13.0518V2.9478C0.288086 1.5078 1.01259 0.799805 2.45009 0.799805ZM10.0631 11.1198L17.8141 4.4838C18.0901 4.2438 18.3086 3.6918 17.9636 3.1998C17.6301 2.7078 17.0206 2.6958 16.6181 2.9958L10.0631 7.6278L3.51959 2.9958C3.11709 2.6958 2.50759 2.7078 2.17409 3.1998C1.82909 3.6918 2.04759 4.2438 2.32359 4.4838L10.0631 11.1198Z" fill="#232164"/>
</svg>
