<svg width="22" height="18" viewBox="0 0 22 18" fill="none" xmlns="http://www.w3.org/2000/svg">
<path d="M5.48593 14.129C3.64093 12.819 2.18093 11.115 1.35593 10.039C1.12523 9.74198 1 9.37659 1 9.0005C1 8.62441 1.12523 8.25902 1.35593 7.962C2.84893 6.013 6.43093 2 10.6129 2C12.4889 2 14.2429 2.807 15.7429 3.874" stroke="#8E8E8E" stroke-width="2" stroke-linecap="round" stroke-linejoin="round"/>
<path d="M8.61328 15.704C9.26249 15.8972 9.93593 15.9969 10.6133 16C14.7953 16 18.3773 11.987 19.8703 10.038C20.1009 9.74071 20.226 9.37509 20.2258 8.99883C20.2256 8.62256 20.1002 8.25707 19.8693 7.96C19.3446 7.27549 18.7817 6.62112 18.1833 6M12.7433 6.887C12.4656 6.60467 12.1347 6.38011 11.7698 6.22629C11.4049 6.07246 11.0131 5.99241 10.6171 5.99075C10.2211 5.98909 9.82863 6.06586 9.46243 6.21662C9.09623 6.36738 8.7635 6.58916 8.48344 6.86915C8.20338 7.14915 7.98152 7.48183 7.83067 7.84799C7.67983 8.21416 7.60297 8.60657 7.60453 9.00259C7.6061 9.3986 7.68606 9.79039 7.8398 10.1554C7.99354 10.5203 8.21801 10.8512 8.50028 11.129L12.7433 6.887ZM2.61328 17L18.6133 1L2.61328 17Z" stroke="#9E8E8E" stroke-width="2" stroke-linecap="round" stroke-linejoin="round"/>
</svg>
