<svg width="42" height="42" viewBox="0 0 42 42" fill="none" xmlns="http://www.w3.org/2000/svg">
<path d="M18.9167 10.5837H23.0834V14.7503H18.9167V10.5837ZM18.9167 18.917H23.0834V31.417H18.9167V18.917ZM21.0001 0.166992C9.50008 0.166992 0.166748 9.50033 0.166748 21.0003C0.166748 32.5003 9.50008 41.8337 21.0001 41.8337C32.5001 41.8337 41.8334 32.5003 41.8334 21.0003C41.8334 9.50033 32.5001 0.166992 21.0001 0.166992ZM21.0001 37.667C11.8126 37.667 4.33341 30.1878 4.33341 21.0003C4.33341 11.8128 11.8126 4.33366 21.0001 4.33366C30.1876 4.33366 37.6667 11.8128 37.6667 21.0003C37.6667 30.1878 30.1876 37.667 21.0001 37.667Z" fill="#262466"/>
</svg>
