<svg width="17" height="17" viewBox="0 0 17 17" fill="none" xmlns="http://www.w3.org/2000/svg">
<path d="M15.9264 12.9975L12.3695 9.76347C12.2014 9.61065 11.9804 9.52915 11.7533 9.53617C11.5262 9.54319 11.3107 9.63818 11.1524 9.80109L9.0585 11.9545C8.5545 11.8582 7.54125 11.5423 6.49825 10.502C5.45525 9.45809 5.13937 8.44222 5.04575 7.94172L7.19737 5.84697C7.36048 5.6887 7.45562 5.47318 7.46264 5.24602C7.46966 5.01886 7.38802 4.79788 7.235 4.62984L4.00187 1.07384C3.84878 0.905277 3.63602 0.803031 3.40876 0.788817C3.18149 0.774603 2.95764 0.849541 2.78475 0.997715L0.885997 2.62609C0.734719 2.77792 0.644426 2.97998 0.632247 3.19396C0.619122 3.41271 0.368872 8.59447 4.38687 12.6142C7.89212 16.1186 12.2829 16.375 13.4921 16.375C13.6689 16.375 13.7774 16.3697 13.8062 16.368C14.0202 16.356 14.2222 16.2653 14.3732 16.1133L16.0007 14.2137C16.1495 14.0414 16.225 13.8177 16.2111 13.5905C16.1972 13.3632 16.095 13.1504 15.9264 12.9975Z" fill="#232164"/>
</svg>
