<svg width="13" height="13" viewBox="0 0 13 13" fill="none" xmlns="http://www.w3.org/2000/svg">
<path d="M11.4665 7.137C11.4932 6.929 11.5132 6.721 11.5132 6.5C11.5132 6.279 11.4932 6.071 11.4665 5.863L12.8764 4.7905C13.0034 4.693 13.0368 4.5175 12.9566 4.3745L11.6202 2.1255C11.56 2.0215 11.4464 1.963 11.3261 1.963C11.286 1.963 11.2459 1.9695 11.2125 1.9825L9.54863 2.6325C9.20114 2.3725 8.82693 2.158 8.41931 1.9955L8.16538 0.273C8.14533 0.117 8.005 0 7.83795 0H5.16501C4.99795 0 4.85762 0.117 4.83757 0.273L4.58364 1.9955C4.17602 2.158 3.80181 2.379 3.45433 2.6325L1.79042 1.9825C1.75033 1.9695 1.71023 1.963 1.67014 1.963C1.55654 1.963 1.44294 2.0215 1.3828 2.1255L0.0463297 4.3745C-0.0405407 4.5175 -0.000446583 4.693 0.126518 4.7905L1.53649 5.863C1.50976 6.071 1.48972 6.2855 1.48972 6.5C1.48972 6.7145 1.50976 6.929 1.53649 7.137L0.126518 8.2095C-0.000446583 8.307 -0.0338584 8.4825 0.0463297 8.6255L1.3828 10.8745C1.44294 10.9785 1.55654 11.037 1.67682 11.037C1.71692 11.037 1.75701 11.0305 1.79042 11.0175L3.45433 10.3675C3.80181 10.6275 4.17602 10.842 4.58364 11.0045L4.83757 12.727C4.85762 12.883 4.99795 13 5.16501 13H7.83795C8.005 13 8.14533 12.883 8.16538 12.727L8.41931 11.0045C8.82693 10.842 9.20114 10.621 9.54863 10.3675L11.2125 11.0175C11.2526 11.0305 11.2927 11.037 11.3328 11.037C11.4464 11.037 11.56 10.9785 11.6202 10.8745L12.9566 8.6255C13.0368 8.4825 13.0034 8.307 12.8764 8.2095L11.4665 7.137ZM10.1434 6.0255C10.1701 6.227 10.1768 6.3635 10.1768 6.5C10.1768 6.6365 10.1634 6.7795 10.1434 6.9745L10.0498 7.709L10.6445 8.164L11.3662 8.71L10.8985 9.4965L10.0498 9.165L9.35484 8.892L8.75343 9.334C8.46609 9.542 8.19211 9.698 7.91813 9.8085L7.20981 10.088L7.10289 10.8225L6.96924 11.7H6.03371L5.90675 10.8225L5.79983 10.088L5.0915 9.8085C4.80416 9.6915 4.53687 9.542 4.26957 9.347L3.66148 8.892L2.95315 9.1715L2.10449 9.503L1.63673 8.7165L2.35842 8.1705L2.95315 7.7155L2.8596 6.981C2.83955 6.7795 2.82619 6.63 2.82619 6.5C2.82619 6.37 2.83955 6.2205 2.8596 6.0255L2.95315 5.291L2.35842 4.836L1.63673 4.29L2.10449 3.5035L2.95315 3.835L3.64811 4.108L4.24953 3.666C4.53687 3.458 4.81084 3.302 5.08482 3.1915L5.79315 2.912L5.90007 2.1775L6.03371 1.3H6.96256L7.08952 2.1775L7.19644 2.912L7.90477 3.1915C8.19211 3.3085 8.4594 3.458 8.7267 3.653L9.33479 4.108L10.0431 3.8285L10.8918 3.497L11.3595 4.2835L10.6445 4.836L10.0498 5.291L10.1434 6.0255ZM6.50148 3.9C5.02468 3.9 3.82854 5.0635 3.82854 6.5C3.82854 7.9365 5.02468 9.1 6.50148 9.1C7.97827 9.1 9.17441 7.9365 9.17441 6.5C9.17441 5.0635 7.97827 3.9 6.50148 3.9ZM6.50148 7.8C5.76642 7.8 5.16501 7.215 5.16501 6.5C5.16501 5.785 5.76642 5.2 6.50148 5.2C7.23653 5.2 7.83795 5.785 7.83795 6.5C7.83795 7.215 7.23653 7.8 6.50148 7.8Z" fill="#F2F2F2"/>
</svg>
