<svg width="17" height="12" viewBox="0 0 17 12" fill="none" xmlns="http://www.w3.org/2000/svg">
<path d="M4.74731 6.84766C3.71981 7.54516 2.99982 8.49016 2.99982 9.75016V12.0002H-0.000184059V9.75016C-0.000184059 8.11516 2.67732 7.14766 4.74731 6.84766Z" fill="#F2F2F2"/>
<path d="M5.99981 6C4.34232 6 2.99982 4.6575 2.99982 3C2.99982 1.3425 4.34232 0 5.99981 0C6.35231 0 6.68231 0.0749998 6.99731 0.18C6.37481 0.9525 5.99981 1.935 5.99981 3C5.99981 4.065 6.37481 5.0475 6.99731 5.82C6.68231 5.925 6.35231 6 5.99981 6Z" fill="#F2F2F2"/>
<path d="M10.5 6C8.8425 6 7.5 4.6575 7.5 3C7.5 1.3425 8.8425 0 10.5 0C12.1575 0 13.5 1.3425 13.5 3C13.5 4.6575 12.1575 6 10.5 6ZM10.5 1.5C9.675 1.5 9 2.175 9 3C9 3.825 9.675 4.5 10.5 4.5C11.325 4.5 12 3.825 12 3C12 2.175 11.325 1.5 10.5 1.5Z" fill="#F2F2F2"/>
<path d="M10.5 6.75C12.5025 6.75 16.5 7.755 16.5 9.75V12H4.5V9.75C4.5 7.755 8.4975 6.75 10.5 6.75ZM6 10.5H15V9.7575C14.85 9.2175 12.525 8.25 10.5 8.25C8.475 8.25 6.15 9.2175 6 9.75V10.5Z" fill="#F2F2F2"/>
</svg>
