<svg width="13" height="13" viewBox="0 0 13 13" fill="none" xmlns="http://www.w3.org/2000/svg">
<path fill-rule="evenodd" clip-rule="evenodd" d="M12.7292 10.8333C12.7292 11.5814 12.1231 12.1875 11.375 12.1875H1.62504C0.876999 12.1875 0.270874 11.5814 0.270874 10.8333V2.97917C0.270874 2.3809 0.755936 1.89583 1.35421 1.89583H6.81719L9.01066 1.10121C9.1496 1.05056 9.30344 1.12233 9.35408 1.26073L9.5851 1.89583H10.5625C11.1608 1.89583 11.6459 2.3809 11.6459 2.97917V3.52083C12.2441 3.52083 12.7292 4.0059 12.7292 4.60417V10.8333ZM1.35421 2.4375C1.05521 2.4375 0.812541 2.68017 0.812541 2.97917C0.812541 3.27817 1.05521 3.52083 1.35421 3.52083H2.28723H2.33842C2.34194 3.51948 2.3441 3.5165 2.34762 3.51515L5.32192 2.4375H1.35421ZM9.2295 2.48652L8.94187 1.6946H8.9416L8.38612 1.89583H8.38694L6.89356 2.4375H6.89085L3.90112 3.52083H9.60542L9.2295 2.48652ZM11.1042 2.97917C11.1042 2.68017 10.8615 2.4375 10.5625 2.4375H9.78173L10.1755 3.52083H11.1042V2.97917ZM11.6459 4.0625H1.35421C1.15596 4.0625 0.972332 4.00535 0.812541 3.91219V10.8333C0.812541 11.2821 1.17654 11.6458 1.62504 11.6458H11.375C11.8238 11.6458 12.1875 11.2821 12.1875 10.8333V8.9375H11.1042C10.5059 8.9375 10.0209 8.45244 10.0209 7.85417C10.0209 7.2559 10.5059 6.77083 11.1042 6.77083H12.1875V4.60417C12.1875 4.30517 11.9449 4.0625 11.6459 4.0625ZM12.1875 8.39583V7.3125H11.1042C10.8052 7.3125 10.5625 7.55517 10.5625 7.85417C10.5625 8.15317 10.8052 8.39583 11.1042 8.39583H12.1875ZM11.1042 7.58333H11.6459V8.125H11.1042V7.58333Z" fill="#F2F2F2"/>
</svg>
