<svg width="23" height="17" viewBox="0 0 23 17" fill="none" xmlns="http://www.w3.org/2000/svg">
<path d="M16.3823 9.70117C17.8146 10.6893 18.8182 12.028 18.8182 13.813V17.0005H23.0001V13.813C23.0001 11.4968 19.2678 10.1262 16.3823 9.70117Z" fill="#F2F2F2"/>
<path d="M14.6364 8.5C16.9469 8.5 18.8182 6.59812 18.8182 4.25C18.8182 1.90188 16.9469 0 14.6364 0C14.1451 0 13.6851 0.10625 13.246 0.255C14.1137 1.34937 14.6364 2.74125 14.6364 4.25C14.6364 5.75875 14.1137 7.15063 13.246 8.245C13.6851 8.39375 14.1451 8.5 14.6364 8.5Z" fill="#F2F2F2"/>
<path d="M8.36358 8.5C10.674 8.5 12.5454 6.59812 12.5454 4.25C12.5454 1.90188 10.674 0 8.36358 0C6.05313 0 4.18176 1.90188 4.18176 4.25C4.18176 6.59812 6.05313 8.5 8.36358 8.5ZM8.36358 2.125C9.51358 2.125 10.4545 3.08125 10.4545 4.25C10.4545 5.41875 9.51358 6.375 8.36358 6.375C7.21358 6.375 6.27267 5.41875 6.27267 4.25C6.27267 3.08125 7.21358 2.125 8.36358 2.125Z" fill="#F2F2F2"/>
<path d="M8.36364 9.5625C5.57227 9.5625 0 10.9862 0 13.8125V17H16.7273V13.8125C16.7273 10.9862 11.155 9.5625 8.36364 9.5625ZM14.6364 14.875H2.09091V13.8231C2.3 13.0581 5.54091 11.6875 8.36364 11.6875C11.1864 11.6875 14.4273 13.0581 14.6364 13.8125V14.875Z" fill="#F2F2F2"/>
</svg>
