<svg width="15" height="15" viewBox="0 0 15 15" fill="none" xmlns="http://www.w3.org/2000/svg">
<path fill-rule="evenodd" clip-rule="evenodd" d="M0 7.35C0 5.40066 0.774373 3.53116 2.15277 2.15277C3.53116 0.774373 5.40066 0 7.35 0C9.29934 0 11.1688 0.774373 12.5472 2.15277C13.9256 3.53116 14.7 5.40066 14.7 7.35C14.7 9.29934 13.9256 11.1688 12.5472 12.5472C11.1688 13.9256 9.29934 14.7 7.35 14.7C5.40066 14.7 3.53116 13.9256 2.15277 12.5472C0.774373 11.1688 0 9.29934 0 7.35H0ZM6.93056 10.4958L11.1622 5.20576L10.3978 4.59424L6.78944 9.10322L4.2336 6.97368L3.6064 7.72632L6.93056 10.4968V10.4958Z" fill="#707070"/>
</svg>
