<svg width="16" height="14" viewBox="0 0 16 14" fill="none" xmlns="http://www.w3.org/2000/svg">
<path d="M0.293 5.71126L7.293 0.626731C7.48053 0.490559 7.73484 0.414063 8 0.414062C8.26516 0.414062 8.51947 0.490559 8.707 0.626731L15.707 5.71126C15.8946 5.84745 15.9999 6.03217 16 6.2248V13.1877C16 13.3803 15.8946 13.5651 15.7071 13.7013C15.5196 13.8375 15.2652 13.9141 15 13.9141H10V8.82953H6V13.9141H1C0.734784 13.9141 0.48043 13.8375 0.292893 13.7013C0.105357 13.5651 0 13.3803 0 13.1877V6.2248C5.66374e-05 6.03217 0.105451 5.84745 0.293 5.71126Z" fill="white"/>
</svg>
