<svg width="11" height="11" viewBox="0 0 11 11" fill="none" xmlns="http://www.w3.org/2000/svg">
<path d="M5.5 0C2.464 0 0 2.464 0 5.5C0 8.536 2.464 11 5.5 11C8.536 11 11 8.536 11 5.5C11 2.464 8.536 0 5.5 0ZM6.05 9.35H4.95V8.25H6.05V9.35ZM7.1885 5.0875L6.6935 5.5935C6.2975 5.995 6.05 6.325 6.05 7.15H4.95V6.875C4.95 6.27 5.1975 5.72 5.5935 5.3185L6.2755 4.6255C6.479 4.4275 6.6 4.1525 6.6 3.85C6.6 3.245 6.105 2.75 5.5 2.75C4.895 2.75 4.4 3.245 4.4 3.85H3.3C3.3 2.6345 4.2845 1.65 5.5 1.65C6.7155 1.65 7.7 2.6345 7.7 3.85C7.7 4.334 7.502 4.774 7.1885 5.0875Z" fill="#A6A6A6"/>
</svg>
