<svg width="29" height="29" viewBox="0 0 29 29" fill="none" xmlns="http://www.w3.org/2000/svg">
<rect width="29" height="29" rx="5" fill="#EAEAEA"/>
<path d="M7.88889 15C7.88889 15.1978 7.8335 15.3911 7.72972 15.5556C7.62594 15.72 7.47844 15.8482 7.30587 15.9239C7.13329 15.9996 6.9434 16.0194 6.76019 15.9808C6.57699 15.9422 6.4087 15.847 6.27662 15.7071C6.14454 15.5673 6.05459 15.3891 6.01815 15.1951C5.98171 15.0011 6.00041 14.8 6.07189 14.6173C6.14337 14.4346 6.26443 14.2784 6.41974 14.1685C6.57505 14.0586 6.75765 14 6.94444 14C7.19493 14 7.43515 14.1054 7.61227 14.2929C7.78939 14.4804 7.88889 14.7348 7.88889 15ZM22.0556 14C21.8688 14 21.6862 14.0586 21.5308 14.1685C21.3755 14.2784 21.2545 14.4346 21.183 14.6173C21.1115 14.8 21.0928 15.0011 21.1293 15.1951C21.1657 15.3891 21.2556 15.5673 21.3877 15.7071C21.5198 15.847 21.6881 15.9422 21.8713 15.9808C22.0545 16.0194 22.2444 15.9996 22.417 15.9239C22.5896 15.8482 22.7371 15.72 22.8408 15.5556C22.9446 15.3911 23 15.1978 23 15C23 14.7348 22.9005 14.4804 22.7234 14.2929C22.5463 14.1054 22.306 14 22.0556 14ZM14.5 14C14.3132 14 14.1306 14.0586 13.9753 14.1685C13.82 14.2784 13.6989 14.4346 13.6274 14.6173C13.556 14.8 13.5373 15.0011 13.5737 15.1951C13.6101 15.3891 13.7001 15.5673 13.8322 15.7071C13.9643 15.847 14.1325 15.9422 14.3157 15.9808C14.499 16.0194 14.6888 15.9996 14.8614 15.9239C15.034 15.8482 15.1815 15.72 15.2853 15.5556C15.3891 15.3911 15.4444 15.1978 15.4444 15C15.4444 14.7348 15.3449 14.4804 15.1678 14.2929C14.9907 14.1054 14.7505 14 14.5 14Z" fill="black"/>
</svg>
