<svg width="35" height="35" viewBox="0 0 35 35" fill="none" xmlns="http://www.w3.org/2000/svg">
<path d="M12.25 0C5.50524 0 0 5.50524 0 12.25C0 18.9948 5.50524 24.5 12.25 24.5C15.309 24.5 18.1038 23.359 20.2549 21.4922L21 22.2373V24.5L31.5 35L35 31.5L24.5 21H22.2373L21.4922 20.2549C23.359 18.1038 24.5 15.309 24.5 12.25C24.5 5.50524 18.9948 0 12.25 0ZM12.25 3.5C17.1032 3.5 21 7.39678 21 12.25C21 17.1032 17.1032 21 12.25 21C7.39678 21 3.5 17.1032 3.5 12.25C3.5 7.39678 7.39678 3.5 12.25 3.5Z" fill="#232164"/>
</svg>
