<svg width="16" height="13" viewBox="0 0 16 13" fill="none" xmlns="http://www.w3.org/2000/svg">
<path d="M7.75911 0C8.36674 0.00533351 8.97189 0.0620021 9.56462 0.168672C9.69089 0.191373 9.80521 0.245277 9.89159 0.322851C9.97797 0.400426 10.0321 0.497795 10.0464 0.601354L10.1872 1.61939C10.207 1.763 10.2684 1.90086 10.3665 2.02185C10.4646 2.14285 10.5966 2.2436 10.7519 2.31599C10.9072 2.38837 11.0814 2.43038 11.2605 2.43862C11.4397 2.44686 11.6187 2.4211 11.7832 2.36341L12.9422 1.9534C13.0599 1.91163 13.1909 1.90036 13.317 1.92114C13.443 1.94192 13.5579 1.99373 13.6459 2.0694C14.4835 2.79017 15.1074 3.65454 15.4704 4.59749C15.5085 4.69658 15.5073 4.80276 15.4671 4.90131C15.4269 4.99985 15.3497 5.08589 15.2461 5.14751L14.2179 5.7582C14.0732 5.8437 13.9555 5.95545 13.8745 6.0844C13.7934 6.21334 13.7512 6.35586 13.7513 6.50039C13.7514 6.64492 13.7937 6.78741 13.8749 6.91629C13.9561 7.04518 14.0739 7.15685 14.2187 7.24225L15.2477 7.85227C15.3515 7.91392 15.4289 8.00008 15.4691 8.09876C15.5093 8.19745 15.5103 8.30377 15.4721 8.40295C15.1091 9.34579 14.4856 10.2101 13.6483 10.931C13.5606 11.0067 13.4459 11.0585 13.32 11.0794C13.1941 11.1003 13.0632 11.0892 12.9455 11.0477L11.7816 10.6364C11.6173 10.5782 11.4383 10.5521 11.2591 10.56C11.0799 10.568 10.9056 10.6098 10.7503 10.6822C10.5949 10.7545 10.4629 10.8553 10.3649 10.9764C10.2669 11.0974 10.2058 11.2354 10.1863 11.3791L10.0464 12.3964C10.0323 12.4989 9.97925 12.5953 9.89448 12.6725C9.80972 12.7497 9.6974 12.8039 9.5729 12.8278C8.37408 13.0574 7.12509 13.0574 5.92628 12.8278C5.80177 12.8039 5.68945 12.7497 5.60469 12.6725C5.51993 12.5953 5.46686 12.4989 5.45275 12.3964L5.31202 11.3804C5.29166 11.2373 5.22995 11.1001 5.13185 10.9798C5.03374 10.8594 4.90198 10.7592 4.74711 10.6873C4.59225 10.6153 4.41861 10.5736 4.24011 10.5654C4.06161 10.5573 3.88323 10.583 3.71926 10.6404L2.5545 11.051C2.43676 11.0926 2.30592 11.1037 2.18003 11.0828C2.05414 11.0619 1.93941 11.01 1.85167 10.9344C1.01395 10.2127 0.390403 9.34741 0.027942 8.40362C-0.0103114 8.30443 -0.00926367 8.19811 0.0309395 8.09943C0.0711427 8.00074 0.148506 7.91459 0.252286 7.85293L1.28211 7.24225C1.42686 7.1568 1.54457 7.04509 1.62571 6.91617C1.70685 6.78725 1.74913 6.64475 1.74913 6.50022C1.74913 6.35569 1.70685 6.21319 1.62571 6.08427C1.54457 5.95535 1.42686 5.84364 1.28211 5.7582L0.253114 5.14884C0.149187 5.08727 0.0716592 5.00115 0.0313052 4.90246C-0.00904875 4.80377 -0.0102243 4.69741 0.027942 4.59816C0.391211 3.65515 1.01533 2.79077 1.85332 2.07007C1.94116 1.99454 2.05594 1.94282 2.18183 1.92204C2.30771 1.90126 2.4385 1.91245 2.55615 1.95407L3.71513 2.36408C3.87988 2.4216 4.05909 2.44719 4.23836 2.43881C4.41762 2.43042 4.59195 2.3883 4.74733 2.31581C4.90271 2.24332 5.03482 2.14249 5.13303 2.02143C5.23125 1.90036 5.29284 1.76243 5.31285 1.61872L5.45358 0.601354C5.46779 0.497587 5.52197 0.400003 5.60852 0.322287C5.69507 0.244571 5.80966 0.190623 5.93621 0.168006C6.5306 0.0620022 7.13657 0.0060002 7.75911 0ZM7.74834 4.50015C7.08968 4.50015 6.45799 4.71087 5.99224 5.08596C5.52649 5.46104 5.26483 5.96977 5.26483 6.50022C5.26483 7.03067 5.52649 7.5394 5.99224 7.91448C6.45799 8.28957 7.08968 8.50029 7.74834 8.50029C8.40701 8.50029 9.0387 8.28957 9.50445 7.91448C9.9702 7.5394 10.2319 7.03067 10.2319 6.50022C10.2319 5.96977 9.9702 5.46104 9.50445 5.08596C9.0387 4.71087 8.40701 4.50015 7.74834 4.50015Z" fill="white"/>
</svg>
