<svg width="17" height="12" viewBox="0 0 17 12" fill="none" xmlns="http://www.w3.org/2000/svg">
<path d="M4.74677 6.84766C3.71927 7.54516 2.99927 8.49016 2.99927 9.75016V12.0002H-0.000733376V9.75016C-0.000733376 8.11516 2.67677 7.14766 4.74677 6.84766Z" fill="#F2F2F2"/>
<path d="M5.99927 6C4.34177 6 2.99927 4.6575 2.99927 3C2.99927 1.3425 4.34177 0 5.99927 0C6.35177 0 6.68177 0.0749998 6.99677 0.18C6.37427 0.9525 5.99927 1.935 5.99927 3C5.99927 4.065 6.37427 5.0475 6.99677 5.82C6.68177 5.925 6.35177 6 5.99927 6Z" fill="#F2F2F2"/>
<path d="M10.4995 6C8.84201 6 7.49951 4.6575 7.49951 3C7.49951 1.3425 8.84201 0 10.4995 0C12.157 0 13.4995 1.3425 13.4995 3C13.4995 4.6575 12.157 6 10.4995 6ZM10.4995 1.5C9.67451 1.5 8.99951 2.175 8.99951 3C8.99951 3.825 9.67451 4.5 10.4995 4.5C11.3245 4.5 11.9995 3.825 11.9995 3C11.9995 2.175 11.3245 1.5 10.4995 1.5Z" fill="#F2F2F2"/>
<path d="M10.4995 6.75C12.502 6.75 16.4995 7.755 16.4995 9.75V12H4.49952V9.75C4.49952 7.755 8.49701 6.75 10.4995 6.75ZM5.99952 10.5H14.9995V9.7575C14.8495 9.2175 12.5245 8.25 10.4995 8.25C8.47451 8.25 6.14952 9.2175 5.99952 9.75V10.5Z" fill="#F2F2F2"/>
</svg>
