<svg width="16" height="13" viewBox="0 0 16 13" fill="none" xmlns="http://www.w3.org/2000/svg">
<path d="M10.129 1.01588C10.0977 0.996016 10.0618 0.981251 10.0233 0.972434C9.98483 0.963616 9.94451 0.960919 9.90469 0.964499C9.86487 0.968079 9.82633 0.977865 9.7913 0.993293C9.75628 1.00872 9.72545 1.02949 9.70059 1.05439L6.90338 3.85255H5.35316L8.74834 0.456439C8.8726 0.332112 9.02664 0.228464 9.20162 0.151453C9.3766 0.0744411 9.56907 0.0255837 9.76796 0.00768821C9.96685 -0.0102073 10.1682 0.00321181 10.3606 0.0471745C10.5529 0.0911372 10.7323 0.164777 10.8886 0.263861L14.0164 2.24886C14.3122 2.4366 14.5087 2.70513 14.5674 3.00174C14.626 3.29836 14.5427 3.60164 14.3336 3.85207H12.7451L13.2963 3.34559C13.323 3.32109 13.3432 3.29258 13.3556 3.26177C13.3681 3.23095 13.3726 3.19846 13.3689 3.16624C13.3651 3.13401 13.3532 3.10272 13.3338 3.07422C13.3145 3.04573 13.2881 3.02062 13.2562 3.00039L11.7345 2.03461L9.93091 3.85255H8.38494L10.7853 1.43281L10.129 1.01588ZM1.82308 2.40822C1.33957 2.40822 0.87586 2.56039 0.533967 2.83125C0.192074 3.10212 0 3.46949 0 3.85255V10.8335C0 11.4081 0.28811 11.9591 0.80095 12.3654C1.31379 12.7717 2.00935 13 2.73462 13H13.0654C13.7906 13 14.4862 12.7717 14.999 12.3654C15.5119 11.9591 15.8 11.4081 15.8 10.8335V6.5005C15.8 5.9259 15.5119 5.37485 14.999 4.96855C14.4862 4.56225 13.7906 4.334 13.0654 4.334H1.82308C1.66191 4.334 1.50734 4.28327 1.39337 4.19298C1.27941 4.10269 1.21538 3.98024 1.21538 3.85255C1.21538 3.72486 1.27941 3.60241 1.39337 3.51212C1.50734 3.42183 1.66191 3.37111 1.82308 3.37111H4.60631L5.57618 2.40822H1.82308ZM10.9385 8.18555H12.7615C12.9227 8.18555 13.0773 8.23628 13.1912 8.32656C13.3052 8.41685 13.3692 8.53931 13.3692 8.667C13.3692 8.79468 13.3052 8.91714 13.1912 9.00743C13.0773 9.09772 12.9227 9.14844 12.7615 9.14844H10.9385C10.7773 9.14844 10.6227 9.09772 10.5088 9.00743C10.3948 8.91714 10.3308 8.79468 10.3308 8.667C10.3308 8.53931 10.3948 8.41685 10.5088 8.32656C10.6227 8.23628 10.7773 8.18555 10.9385 8.18555Z" fill="white"/>
</svg>
