<svg width="37" height="37" viewBox="0 0 37 37" fill="none" xmlns="http://www.w3.org/2000/svg">
<rect width="37" height="37" rx="5" fill="#89D39D" fill-opacity="0.38"/>
<path d="M20.4905 21.5H15.75C15.3358 21.5 15 21.8358 15 22.25C15 22.6642 15.3358 23 15.75 23H22.25C22.6642 23 23 22.6642 23 22.25V15.75C23 15.3358 22.6642 15 22.25 15C21.8358 15 21.5 15.3358 21.5 15.75V20.3886L16.2778 15.217C15.9835 14.9256 15.5086 14.9279 15.2171 15.2222C14.9257 15.5165 14.928 15.9914 15.2223 16.2828L20.4905 21.5ZM9 19C9 13.4771 13.4771 9 19 9C24.5228 9 29 13.4771 29 19C29 24.5228 24.5228 29 19 29C13.4771 29 9 24.5228 9 19ZM19 10.5C14.3056 10.5 10.5 14.3056 10.5 19C10.5 23.6944 14.3056 27.5 19 27.5C23.6944 27.5 27.5 23.6944 27.5 19C27.5 14.3056 23.6944 10.5 19 10.5Z" fill="#3AB75D"/>
</svg>
