<svg width="37" height="37" viewBox="0 0 37 37" fill="none" xmlns="http://www.w3.org/2000/svg">
<rect width="37" height="37" rx="5" fill="#FF989E" fill-opacity="0.47"/>
<path d="M9 18.5C9 21.1244 9.96056 23.4875 11.4911 25.1975L9 28H15.3333V20.875L12.9689 23.535C11.8289 22.2406 11.1111 20.4712 11.1111 18.5C11.1111 15.4006 12.8739 12.7644 15.3333 11.7906V9.30875C11.6917 10.3656 9 14.0706 9 18.5ZM17.4444 24.4375H19.5556V22.0625H17.4444V24.4375ZM28 9H21.6667V16.125L24.0311 13.465C25.1711 14.7594 25.8889 16.5287 25.8889 18.5C25.8889 21.5994 24.1261 24.2356 21.6667 25.2094V27.6912C25.3083 26.6344 28 22.9294 28 18.5C28 15.8756 27.0394 13.5125 25.5089 11.8025L28 9ZM17.4444 19.6875H19.5556V12.5625H17.4444V19.6875Z" fill="#FC0D1B"/>
</svg>
