<svg width="22" height="24" viewBox="0 0 22 24" fill="none" xmlns="http://www.w3.org/2000/svg">
<path d="M11 24C12.5125 24 13.75 22.8923 13.75 21.5385H8.25C8.25 22.8923 9.4875 24 11 24ZM19.25 16.6154V10.4615C19.25 6.68308 17.0087 3.52 13.0625 2.68308V1.84615C13.0625 0.824615 12.1412 0 11 0C9.85875 0 8.9375 0.824615 8.9375 1.84615V2.68308C5.005 3.52 2.75 6.67077 2.75 10.4615V16.6154L0 19.0769V20.3077H22V19.0769L19.25 16.6154ZM16.5 17.8462H5.5V10.4615C5.5 7.40923 7.57625 4.92308 11 4.92308C14.4237 4.92308 16.5 7.40923 16.5 10.4615V17.8462Z" fill="#232164"/>
</svg>
