<svg width="50" height="50" viewBox="0 0 50 50" fill="none" xmlns="http://www.w3.org/2000/svg">
<path d="M45.4545 7.95L19.5227 36.5L9.88636 25.9L13.0909 22.375L19.5227 29.45L42.25 4.45L45.4545 7.95ZM22.7273 45C12.7045 45 4.54545 36.025 4.54545 25C4.54545 13.975 12.7045 5 22.7273 5C26.2955 5 29.6364 6.15 32.4545 8.125L35.75 4.5C32.0455 1.675 27.5682 0 22.7273 0C10.1818 0 0 11.2 0 25C0 38.8 10.1818 50 22.7273 50C26.6591 50 30.3636 48.9 33.5909 46.95L30.1818 43.2C27.9091 44.35 25.3864 45 22.7273 45ZM38.6364 32.5H31.8182V37.5H38.6364V45H43.1818V37.5H50V32.5H43.1818V25H38.6364V32.5Z" fill="#262466"/>
</svg>
